<svg height="56" viewBox="0 0 56 56" width="56" xmlns="http://www.w3.org/2000/svg"><path d="m44.7242 49.2514h6.6408c3.0751 0 4.635-1.4707 4.635-4.3899v-32.4012c0-2.9192-1.5599-4.4123-4.635-4.4123h-6.6408c-3.0527 0-4.635 1.4931-4.635 4.4123v32.4012c0 2.9192 1.5823 4.3899 4.635 4.3899zm-20.0556 0h6.6407c3.0752 0 4.6574-1.4707 4.6574-4.3899v-25.8942c0-2.9193-1.5822-4.4123-4.6574-4.4123h-6.6407c-3.0529 0-4.6128 1.493-4.6128 4.4123v25.8942c0 2.9192 1.5599 4.3899 4.6128 4.3899zm-20.0335 0h6.6407c3.0752 0 4.6351-1.4707 4.6351-4.3899v-19.4095c0-2.9193-1.5599-4.4123-4.6351-4.4123h-6.6407c-3.0529 0-4.6351 1.493-4.6351 4.4123v19.4095c0 2.9192 1.5822 4.3899 4.6351 4.3899z"/></svg>